<svg width="149" height="42" viewBox="0 0 149 42" fill="none" xmlns="http://www.w3.org/2000/svg">
<path d="M8.316 41H4.536C3.72 41 3.18 40.868 2.916 40.604C2.676 40.34 2.556 39.788 2.556 38.948V17.024C2.556 16.184 2.676 15.632 2.916 15.368C3.18 15.104 3.72 14.972 4.536 14.972H8.316V41ZM19.44 35.96V39.02C19.44 39.836 19.308 40.376 19.044 40.64C18.78 40.88 18.228 41 17.388 41H9.756V35.96H19.44ZM17.28 25.34V27.5C17.28 28.364 17.196 28.916 17.028 29.156C16.86 29.372 16.38 29.48 15.588 29.48H9.756V25.34H17.28ZM19.08 14.972V18.032C19.08 18.848 18.948 19.388 18.684 19.652C18.42 19.892 17.868 20.012 17.028 20.012H9.756V14.972H19.08ZM43.1677 14.972V38.948C43.1677 39.788 43.0357 40.34 42.7717 40.604C42.5317 40.868 42.0037 41 41.1877 41H36.0757C34.6597 41 33.7237 40.784 33.2677 40.352C32.8357 39.92 32.4517 38.804 32.1157 37.004C31.4437 33.452 30.4717 27.716 29.1997 19.796C29.1037 19.196 28.9597 18.812 28.7677 18.644C28.5997 18.476 28.2997 18.38 27.8677 18.356H23.4397V14.972H31.2517C31.8517 14.972 32.3317 15.044 32.6917 15.188C33.0517 15.332 33.3397 15.644 33.5557 16.124C33.7957 16.58 33.9517 17.024 34.0237 17.456C34.1197 17.888 34.2157 18.392 34.3117 18.968C34.4317 19.664 34.5997 20.684 34.8157 22.028C35.2237 24.74 35.8597 28.568 36.7237 33.512C37.0597 35.624 37.2877 36.812 37.4077 37.076C37.5517 37.316 37.7917 37.46 38.1277 37.508V16.412C38.1277 15.98 38.2477 15.632 38.4877 15.368C38.7277 15.104 39.0397 14.972 39.4237 14.972H43.1677ZM23.4397 19.616H27.1837C27.5677 19.616 27.8797 19.748 28.1197 20.012C28.3597 20.276 28.4797 20.624 28.4797 21.056V38.948C28.4797 39.764 28.3717 40.316 28.1557 40.604C27.9397 40.868 27.5077 41 26.8597 41H23.4397V19.616ZM54.0894 41H50.3094C49.4934 41 48.9534 40.868 48.6894 40.604C48.4494 40.34 48.3294 39.788 48.3294 38.948V17.024C48.3294 16.184 48.4494 15.632 48.6894 15.368C48.9534 15.104 49.4934 14.972 50.3094 14.972H54.0894V41ZM107.624 10.634H113.924C115.968 10.634 117.508 10.984 118.544 11.684C119.608 12.384 120.14 13.602 120.14 15.338V38.606C120.14 39.586 119.986 40.23 119.678 40.538C119.398 40.846 118.782 41 117.83 41H113.42V15.842C113.42 15.394 113.35 15.086 113.21 14.918C113.098 14.722 112.79 14.624 112.286 14.624H107.624V10.634ZM92.3778 41H87.9678C87.0158 41 86.3858 40.846 86.0778 40.538C85.7978 40.23 85.6578 39.586 85.6578 38.606V12.314C85.6578 11.81 85.7978 11.404 86.0778 11.096C86.3578 10.788 86.7218 10.634 87.1698 10.634H92.3778V41ZM94.0998 10.634H104.852C105.3 10.634 105.664 10.788 105.944 11.096C106.224 11.404 106.364 11.81 106.364 12.314V37.934H101.996C101.156 37.934 100.554 37.71 100.19 37.262C99.8258 36.786 99.6438 36.03 99.6438 34.994V15.842C99.6438 15.394 99.5738 15.086 99.4338 14.918C99.3218 14.722 99.0138 14.624 98.5098 14.624H94.0998V10.634ZM137.356 14.624H133.45C133.002 14.624 132.778 14.736 132.778 14.96V41H128.368C127.416 41 126.786 40.846 126.478 40.538C126.198 40.23 126.058 39.586 126.058 38.606V13.028C126.058 12.048 126.198 11.404 126.478 11.096C126.786 10.788 127.416 10.634 128.368 10.634H137.356V14.624ZM139.036 10.634H143.446C144.398 10.634 145.014 10.788 145.294 11.096C145.602 11.404 145.756 12.048 145.756 13.028V38.564C145.756 39.544 145.602 40.202 145.294 40.538C144.986 40.846 144.37 41 143.446 41H139.036V26.93H134.458V22.94H139.036V10.634Z" fill="#111111"/>
<path d="M66.8779 10.634V35.792C66.8779 36.212 66.9759 36.52 67.1719 36.716C67.3959 36.912 67.8719 37.01 68.5999 37.01H71.7079V41H66.3739C65.2539 41 64.3159 40.916 63.5599 40.748C62.8319 40.58 62.1879 40.244 61.6279 39.74C61.0959 39.208 60.6759 38.62 60.3679 37.976C60.0879 37.332 59.8639 36.366 59.6959 35.078C59.4439 33.146 59.3179 30.556 59.3179 27.308C59.3179 24.032 59.3319 21.722 59.3599 20.378C59.4159 19.034 59.5279 17.732 59.6959 16.472C59.8639 15.184 60.0879 14.232 60.3679 13.616C60.6759 12.972 61.0959 12.398 61.6279 11.894C62.1879 11.362 62.8319 11.026 63.5599 10.886C64.3159 10.718 65.2539 10.634 66.3739 10.634H66.8779ZM68.5579 24.452H75.9499C78.6939 24.452 80.0659 25.712 80.0659 28.232V36.968C80.0659 38.704 79.9259 39.81 79.6459 40.286C79.3939 40.762 78.6379 41 77.3779 41H73.3879V29.66C73.3879 29.212 73.3179 28.904 73.1779 28.736C73.0659 28.54 72.7579 28.442 72.2539 28.442H68.5579V24.452ZM68.5579 10.634H73.8919C75.9359 10.634 77.4759 10.984 78.5119 11.684C79.5759 12.384 80.1079 13.602 80.1079 15.338V19.118C80.1079 19.706 79.9119 20 79.5199 20H74.2279C73.8359 20 73.5979 19.944 73.5139 19.832C73.4299 19.72 73.3879 19.482 73.3879 19.118V15.842C73.3879 15.394 73.3179 15.086 73.1779 14.918C73.0659 14.722 72.7579 14.624 72.2539 14.624H68.5579V10.634Z" fill="#E76868"/>
<path d="M2 10.2353H55V12.7059H2V10.2353Z" fill="#E76868"/>
</svg>
